umbra-2.ufo
<glyph name="exclam" format="1">
  <advance width="291"/>
  <unicode hex="0021"/>
  <outline>
    <contour>
      <point x="461" y="259" type="line"/>
      <point x="431" y="539" type="line"/>
      <point x="591" y="539" type="line"/>
      <point x="561" y="259" type="line"/>
    </contour>
    <contour>
      <point x="511" y="11" type="line"/>
      <point x="406" y="116" type="line"/>
      <point x="511" y="222" type="line"/>
      <point x="617" y="116" type="line"/>
    </contour>
  </outline>
</glyph>
<glyph name="quotedbl" format="1">
  <advance width="390"/>
  <unicode hex="0022"/>
  <outline>
    <contour>
      <point x="441" y="329" type="line"/>
      <point x="411" y="539" type="line"/>
      <point x="541" y="539" type="line"/>
      <point x="511" y="329" type="line"/>
    </contour>
    <contour>
      <point x="611" y="329" type="line"/>
      <point x="581" y="539" type="line"/>
      <point x="711" y="539" type="line"/>
      <point x="681" y="329" type="line"/>
    </contour>
  </outline>
</glyph>
<glyph name="numbersign" format="1">
  <advance width="600"/>
  <unicode hex="0023"/>
  <outline>
    <contour>
      <point x="386" y="154" type="line"/>
      <point x="386" y="249" type="line"/>
      <point x="509" y="249" type="line"/>
      <point x="523" y="329" type="line"/>
      <point x="436" y="329" type="line"/>
      <point x="436" y="424" type="line"/>
      <point x="540" y="424" type="line"/>
      <point x="561" y="539" type="line"/>
      <point x="666" y="539" type="line"/>
      <point x="645" y="424" type="line"/>
      <point x="725" y="424" type="line"/>
      <point x="746" y="539" type="line"/>
      <point x="851" y="539" type="line"/>
      <point x="830" y="424" type="line"/>
      <point x="936" y="424" type="line"/>
      <point x="936" y="329" type="line"/>
      <point x="813" y="329" type="line"/>
      <point x="799" y="249" type="line"/>
      <point x="886" y="249" type="line"/>
      <point x="886" y="154" type="line"/>
      <point x="782" y="154" type="line"/>
      <point x="761" y="39" type="line"/>
      <point x="656" y="39" type="line"/>
      <point x="677" y="154" type="line"/>
      <point x="597" y="154" type="line"/>
      <point x="576" y="39" type="line"/>
      <point x="471" y="39" type="line"/>
      <point x="492" y="154" type="line"/>
    </contour>
    <contour>
      <point x="694" y="249" type="line"/>
      <point x="708" y="329" type="line"/>
      <point x="628" y="329" type="line"/>
      <point x="614" y="249" type="line"/>
    </contour>
  </outline>
</glyph>
<glyph name="dollar" format="1">
  <advance width="449"/>
  <unicode hex="0024"/>
  <outline>
    <contour>
      <point x="645" y="189" type="curve" smooth="yes"/>
      <point x="645" y="249"/>
      <point x="412" y="252"/>
      <point x="412" y="402" type="curve" smooth="yes"/>
      <point x="412" y="481"/>
      <point x="468" y="532"/>
      <point x="546" y="548" type="curve"/>
      <point x="531" y="609" type="line"/>
      <point x="671" y="609" type="line"/>
      <point x="656" y="548" type="line"/>
      <point x="702" y="536"/>
      <point x="744" y="509"/>
      <point x="781" y="467" type="curve"/>
      <point x="741" y="357" type="line"/>
      <point x="701" y="395"/>
      <point x="653" y="434"/>
      <point x="605" y="434" type="curve" smooth="yes"/>
      <point x="577" y="434"/>
      <point x="567" y="420"/>
      <point x="567" y="402" type="curve" smooth="yes"/>
      <point x="567" y="342"/>
      <point x="790" y="335"/>
      <point x="790" y="191" type="curve" smooth="yes"/>
      <point x="790" y="86"/>
      <point x="725" y="41"/>
      <point x="642" y="28" type="curve"/>
      <point x="658" y="-36" type="line"/>
      <point x="518" y="-36" type="line"/>
      <point x="534" y="28" type="line"/>
      <point x="465" y="38"/>
      <point x="413" y="68"/>
      <point x="381" y="106" type="curve"/>
      <point x="421" y="221" type="line"/>
      <point x="461" y="183"/>
      <point x="530" y="149"/>
      <point x="578" y="149" type="curve" smooth="yes"/>
      <point x="616" y="149"/>
      <point x="645" y="158"/>
    </contour>
  </outline>
</glyph>
<glyph name="comma" format="1">
  <advance width="220"/>
  <unicode hex="002C"/>
  <outline>
    <contour>
      <point x="411" y="-81" type="line"/>
      <point x="411" y="179" type="line"/>
      <point x="541" y="179" type="line"/>
      <point x="541" y="39" type="line"/>
    </contour>
  </outline>
</glyph>
<glyph name="zero" format="1">
  <advance width="510"/>
  <unicode hex="0030"/>
  <outline>
    <contour>
      <point x="396" y="289" type="curve" smooth="yes"/>
      <point x="396" y="438"/>
      <point x="466" y="559"/>
      <point x="621" y="559" type="curve" smooth="yes"/>
      <point x="776" y="559"/>
      <point x="846" y="438"/>
      <point x="846" y="289" type="curve" smooth="yes"/>
      <point x="846" y="140"/>
      <point x="776" y="19"/>
      <point x="621" y="19" type="curve" smooth="yes"/>
      <point x="466" y="19"/>
      <point x="396" y="140"/>
    </contour>
    <contour>
      <point x="541" y="289" type="curve" smooth="yes"/>
      <point x="541" y="196"/>
      <point x="569" y="144"/>
      <point x="621" y="144" type="curve" smooth="yes"/>
      <point x="673" y="144"/>
      <point x="701" y="196"/>
      <point x="701" y="289" type="curve" smooth="yes"/>
      <point x="701" y="382"/>
      <point x="673" y="434"/>
      <point x="621" y="434" type="curve" smooth="yes"/>
      <point x="569" y="434"/>
      <point x="541" y="382"/>
    </contour>
  </outline>
</glyph>
<glyph name="one" format="1">
  <advance width="230"/>
  <unicode hex="0031"/>
  <outline>
    <contour>
      <point x="411" y="39" type="line"/>
      <point x="411" y="489" type="line"/>
      <point x="551" y="569" type="line"/>
      <point x="551" y="39" type="line"/>
    </contour>
  </outline>
</glyph>
<glyph name="six" format="1">
  <advance width="474"/>
  <unicode hex="0036"/>
  <outline>
    <contour>
      <point x="541" y="201" type="curve" smooth="yes"/>
      <point x="541" y="173"/>
      <point x="560" y="144"/>
      <point x="608" y="144" type="curve" smooth="yes"/>
      <point x="656" y="144"/>
      <point x="675" y="173"/>
      <point x="675" y="201" type="curve" smooth="yes"/>
      <point x="675" y="229"/>
      <point x="656" y="258"/>
      <point x="608" y="258" type="curve" smooth="yes"/>
      <point x="560" y="258"/>
      <point x="541" y="229"/>
    </contour>
    <contour>
      <point x="805" y="201" type="curve" smooth="yes"/>
      <point x="805" y="94"/>
      <point x="730" y="29"/>
      <point x="613" y="29" type="curve" smooth="yes"/>
      <point x="456" y="29"/>
      <point x="401" y="154"/>
      <point x="401" y="271" type="curve" smooth="yes"/>
      <point x="401" y="398"/>
      <point x="477" y="549"/>
      <point x="614" y="549" type="curve" smooth="yes"/>
      <point x="691" y="549"/>
      <point x="761" y="514"/>
      <point x="801" y="467" type="curve"/>
      <point x="760" y="361" type="line"/>
      <point x="720" y="399"/>
      <point x="683" y="429"/>
      <point x="635" y="429" type="curve" smooth="yes"/>
      <point x="567" y="429"/>
      <point x="538" y="370"/>
      <point x="532" y="302" type="curve"/>
      <point x="562" y="339"/>
      <point x="608" y="353"/>
      <point x="643" y="353" type="curve" smooth="yes"/>
      <point x="710" y="353"/>
      <point x="805" y="308"/>
    </contour>
  </outline>
</glyph>
<glyph name="colon" format="1">
  <advance width="291"/>
  <unicode hex="003A"/>
  <outline>
    <contour>
      <point x="511" y="296" type="line"/>
      <point x="406" y="401" type="line"/>
      <point x="511" y="507" type="line"/>
      <point x="617" y="401" type="line"/>
    </contour>
    <contour>
      <point x="511" y="11" type="line"/>
      <point x="406" y="116" type="line"/>
      <point x="511" y="222" type="line"/>
      <point x="617" y="116" type="line"/>
    </contour>
  </outline>
</glyph>
<glyph name="E" format="1">
  <advance width="455"/>
  <unicode hex="0045"/>
  <outline>
    <contour>
      <point x="411" y="39" type="curve"/>
      <point x="411" y="539" type="line"/>
      <point x="538" y="539"/>
      <point x="664" y="539"/>
      <point x="791" y="539" type="curve"/>
      <point x="791" y="424" type="line"/>
      <point x="551" y="424" type="line"/>
      <point x="551" y="349" type="line"/>
      <point x="761" y="349" type="line"/>
      <point x="761" y="234" type="line"/>
      <point x="551" y="234" type="line"/>
      <point x="551" y="159" type="line"/>
      <point x="791" y="159" type="line"/>
      <point x="791" y="39" type="line"/>
      <point x="664" y="39"/>
      <point x="538" y="39"/>
    </contour>
  </outline>
</glyph>
<glyph name="F" format="1">
  <advance width="450"/>
  <unicode hex="0046"/>
  <outline>
    <contour>
      <point x="411" y="39" type="line"/>
      <point x="411" y="539" type="line"/>
      <point x="538" y="539"/>
      <point x="664" y="539"/>
      <point x="791" y="539" type="curve"/>
      <point x="791" y="419" type="line"/>
      <point x="551" y="419" type="line"/>
      <point x="551" y="329" type="line"/>
      <point x="761" y="329" type="line"/>
      <point x="761" y="204" type="line"/>
      <point x="551" y="204" type="line"/>
      <point x="551" y="39" type="line"/>
    </contour>
  </outline>
</glyph>
<glyph name="O" format="1">
  <advance width="610"/>
  <unicode hex="004F"/>
  <outline>
    <contour>
      <point x="396" y="289" type="curve" smooth="yes"/>
      <point x="396" y="438"/>
      <point x="496" y="559"/>
      <point x="671" y="559" type="curve" smooth="yes"/>
      <point x="846" y="559"/>
      <point x="946" y="438"/>
      <point x="946" y="289" type="curve" smooth="yes"/>
      <point x="946" y="140"/>
      <point x="846" y="19"/>
      <point x="671" y="19" type="curve" smooth="yes"/>
      <point x="496" y="19"/>
      <point x="396" y="140"/>
    </contour>
    <contour>
      <point x="541" y="289" type="curve" smooth="yes"/>
      <point x="541" y="196"/>
      <point x="609" y="144"/>
      <point x="671" y="144" type="curve" smooth="yes"/>
      <point x="733" y="144"/>
      <point x="801" y="196"/>
      <point x="801" y="289" type="curve" smooth="yes"/>
      <point x="801" y="382"/>
      <point x="733" y="434"/>
      <point x="671" y="434" type="curve" smooth="yes"/>
      <point x="609" y="434"/>
      <point x="541" y="382"/>
    </contour>
  </outline>
</glyph>
<glyph name="R" format="1">
  <advance width="515"/>
  <unicode hex="0052"/>
  <outline>
    <contour>
      <point x="411" y="39" type="line"/>
      <point x="411" y="539" type="line"/>
      <point x="484" y="539"/>
      <point x="558" y="539"/>
      <point x="631" y="539" type="curve" smooth="yes"/>
      <point x="748" y="539"/>
      <point x="833" y="494"/>
      <point x="833" y="367" type="curve" smooth="yes"/>
      <point x="833" y="288"/>
      <point x="786" y="247"/>
      <point x="714" y="232" type="curve"/>
      <point x="861" y="39" type="line"/>
      <point x="701" y="39" type="line"/>
      <point x="551" y="229" type="line"/>
      <point x="551" y="39" type="line"/>
    </contour>
    <contour>
      <point x="618" y="424" type="curve" smooth="yes"/>
      <point x="551" y="424" type="line"/>
      <point x="551" y="309" type="line"/>
      <point x="618" y="309" type="line" smooth="yes"/>
      <point x="656" y="309"/>
      <point x="688" y="319"/>
      <point x="688" y="367" type="curve" smooth="yes"/>
      <point x="688" y="415"/>
      <point x="656" y="424"/>
    </contour>
  </outline>
</glyph>
<glyph name="T" format="1">
  <advance width="480"/>
  <unicode hex="0054"/>
  <outline>
    <contour>
      <point x="386" y="419" type="line"/>
      <point x="386" y="539" type="line"/>
      <point x="826" y="539" type="line"/>
      <point x="826" y="419" type="line"/>
      <point x="676" y="419" type="line"/>
      <point x="676" y="39" type="line"/>
      <point x="536" y="39" type="line"/>
      <point x="536" y="419" type="line"/>
    </contour>
  </outline>
</glyph>
<glyph name="W" format="1">
  <advance width="880"/>
  <unicode hex="0057"/>
  <outline>
    <contour>
      <point x="1226" y="539" type="line"/>
      <point x="1036" y="39" type="line"/>
      <point x="876" y="39" type="line"/>
      <point x="808" y="234" type="line"/>
      <point x="736" y="39" type="line"/>
      <point x="576" y="39" type="line"/>
      <point x="386" y="539" type="line"/>
      <point x="536" y="539" type="line"/>
      <point x="660" y="174" type="line"/>
      <point x="747" y="392" type="line"/>
      <point x="686" y="539" type="line"/>
      <point x="846" y="539" type="line"/>
      <point x="958" y="191" type="line"/>
      <point x="1076" y="539" type="line"/>
    </contour>
  </outline>
</glyph>
<glyph name="c" format="1">
  <advance width="404"/>
  <unicode hex="0063"/>
  <outline>
    <contour>
      <point x="401" y="231" type="curve" smooth="yes"/>
      <point x="401" y="358"/>
      <point x="496" y="434"/>
      <point x="613" y="434" type="curve" smooth="yes"/>
      <point x="651" y="434"/>
      <point x="699" y="423"/>
      <point x="725" y="399" type="curve"/>
      <point x="685" y="296" type="line"/>
      <point x="673" y="311"/>
      <point x="646" y="324"/>
      <point x="623" y="324" type="curve" smooth="yes"/>
      <point x="565" y="324"/>
      <point x="536" y="279"/>
      <point x="536" y="231" type="curve" smooth="yes"/>
      <point x="536" y="183"/>
      <point x="565" y="139"/>
      <point x="623" y="139" type="curve" smooth="yes"/>
      <point x="646" y="139"/>
      <point x="673" y="153"/>
      <point x="685" y="167" type="curve"/>
      <point x="725" y="64" type="line"/>
      <point x="699" y="40"/>
      <point x="651" y="29"/>
      <point x="613" y="29" type="curve" smooth="yes"/>
      <point x="496" y="29"/>
      <point x="401" y="114"/>
    </contour>
  </outline>
</glyph>
<glyph name="e" format="1">
  <advance width="469"/>
  <unicode hex="0065"/>
  <outline>
    <contour>
      <point x="406" y="231" type="curve" smooth="yes"/>
      <point x="406" y="358"/>
      <point x="491" y="434"/>
      <point x="608" y="434" type="curve" smooth="yes"/>
      <point x="725" y="434"/>
      <point x="800" y="358"/>
      <point x="800" y="251" type="curve"/>
      <point x="558" y="162" type="line"/>
      <point x="574" y="142"/>
      <point x="597" y="129"/>
      <point x="628" y="129" type="curve" smooth="yes"/>
      <point x="671" y="129"/>
      <point x="698" y="153"/>
      <point x="720" y="187" type="curve"/>
      <point x="780" y="94" type="line"/>
      <point x="744" y="50"/>
      <point x="686" y="29"/>
      <point x="618" y="29" type="curve" smooth="yes"/>
      <point x="501" y="29"/>
      <point x="406" y="104"/>
    </contour>
    <contour>
      <point x="684" y="305" type="line"/>
      <point x="669" y="325"/>
      <point x="645" y="338"/>
      <point x="611" y="338" type="curve" smooth="yes"/>
      <point x="556" y="338"/>
      <point x="534" y="292"/>
      <point x="531" y="247" type="curve"/>
    </contour>
  </outline>
</glyph>
<glyph name="g" format="1">
  <advance width="489"/>
  <unicode hex="0067"/>
  <outline>
    <contour>
      <point x="680" y="97" type="line"/>
      <point x="649" y="67"/>
      <point x="608" y="49"/>
      <point x="563" y="49" type="curve" smooth="yes"/>
      <point x="456" y="49"/>
      <point x="401" y="134"/>
      <point x="401" y="241" type="curve" smooth="yes"/>
      <point x="401" y="348"/>
      <point x="456" y="434"/>
      <point x="563" y="434" type="curve" smooth="yes"/>
      <point x="608" y="434"/>
      <point x="649" y="418"/>
      <point x="680" y="389" type="curve"/>
      <point x="680" y="424" type="line"/>
      <point x="815" y="424" type="line"/>
      <point x="815" y="-1" type="line" smooth="yes"/>
      <point x="815" y="-98"/>
      <point x="720" y="-153"/>
      <point x="633" y="-153" type="curve" smooth="yes"/>
      <point x="556" y="-153"/>
      <point x="486" y="-128"/>
      <point x="426" y="-91" type="curve"/>
      <point x="466" y="9" type="line"/>
      <point x="516" y="-29"/>
      <point x="575" y="-43"/>
      <point x="613" y="-43" type="curve" smooth="yes"/>
      <point x="661" y="-43"/>
      <point x="680" y="-29"/>
      <point x="680" y="29" type="curve" smooth="yes"/>
    </contour>
    <contour>
      <point x="680" y="297" type="line"/>
      <point x="661" y="318"/>
      <point x="632" y="329"/>
      <point x="603" y="329" type="curve" smooth="yes"/>
      <point x="555" y="329"/>
      <point x="536" y="289"/>
      <point x="536" y="241" type="curve" smooth="yes"/>
      <point x="536" y="193"/>
      <point x="555" y="154"/>
      <point x="603" y="154" type="curve" smooth="yes"/>
      <point x="632" y="154"/>
      <point x="661" y="165"/>
      <point x="680" y="186" type="curve"/>
    </contour>
  </outline>
</glyph>
<glyph name="r" format="1">
  <advance width="374"/>
  <unicode hex="0072"/>
  <outline>
    <contour>
      <point x="740" y="361" type="curve"/>
      <point x="665" y="261" type="line"/>
      <point x="645" y="289"/>
      <point x="636" y="309"/>
      <point x="598" y="309" type="curve" smooth="yes"/>
      <point x="579" y="309"/>
      <point x="558" y="297"/>
      <point x="541" y="279" type="curve"/>
      <point x="541" y="39" type="line"/>
      <point x="406" y="39" type="line"/>
      <point x="406" y="424" type="line"/>
      <point x="521" y="424" type="line"/>
      <point x="530" y="349" type="line"/>
      <point x="559" y="397"/>
      <point x="601" y="429"/>
      <point x="638" y="429" type="curve" smooth="yes"/>
      <point x="695" y="429"/>
      <point x="720" y="388"/>
    </contour>
  </outline>
</glyph>
<glyph name="v" format="1">
  <advance width="465"/>
  <unicode hex="0076"/>
  <outline>
    <contour>
      <point x="526" y="39" type="line"/>
      <point x="376" y="424" type="line"/>
      <point x="521" y="424" type="line"/>
      <point x="602" y="140" type="line"/>
      <point x="676" y="424" type="line"/>
      <point x="821" y="424" type="line"/>
      <point x="681" y="39" type="line"/>
    </contour>
  </outline>
</glyph>
<glyph name="x" format="1">
  <advance width="465"/>
  <unicode hex="0078"/>
  <outline>
    <contour>
      <point x="598" y="337" type="line"/>
      <point x="666" y="424" type="line"/>
      <point x="821" y="424" type="line"/>
      <point x="676" y="238" type="line"/>
      <point x="831" y="39" type="line"/>
      <point x="676" y="39" type="line"/>
      <point x="598" y="138" type="line"/>
      <point x="521" y="39" type="line"/>
      <point x="366" y="39" type="line"/>
      <point x="521" y="238" type="line"/>
      <point x="376" y="424" type="line"/>
      <point x="531" y="424" type="line"/>
    </contour>
  </outline>
</glyph>
<glyph name="y" format="1">
  <advance width="470"/>
  <unicode hex="0079"/>
  <outline>
    <contour>
      <point x="546" y="70" type="line"/>
      <point x="376" y="424" type="line"/>
      <point x="531" y="424" type="line"/>
      <point x="605" y="221" type="line"/>
      <point x="686" y="424" type="line"/>
      <point x="826" y="424" type="line"/>
      <point x="606" y="-106" type="line"/>
      <point x="476" y="-106" type="line"/>
    </contour>
  </outline>
</glyph>
<glyph name="z" format="1">
  <advance width="425"/>
  <unicode hex="007A"/>
  <outline>
    <contour>
      <point x="421" y="294" type="line"/>
      <point x="421" y="424" type="line"/>
      <point x="541" y="424"/>
      <point x="661" y="424"/>
      <point x="781" y="424" type="curve"/>
      <point x="602" y="169" type="line"/>
      <point x="756" y="169" type="line"/>
      <point x="756" y="39" type="line"/>
      <point x="629" y="39"/>
      <point x="503" y="39"/>
      <point x="376" y="39" type="curve"/>
      <point x="555" y="294" type="line"/>
    </contour>
  </outline>
</glyph>
<glyph name="quotedblleft" format="1">
  <advance width="430"/>
  <unicode hex="201C"/>
  <outline>
    <contour>
      <point x="751" y="579" type="line"/>
      <point x="751" y="319" type="line"/>
      <point x="621" y="319" type="line"/>
      <point x="621" y="459" type="line"/>
    </contour>
    <contour>
      <point x="541" y="579" type="line"/>
      <point x="541" y="319" type="line"/>
      <point x="411" y="319" type="line"/>
      <point x="411" y="459" type="line"/>
    </contour>
  </outline>
</glyph>
<glyph name="quotedblright" format="1">
  <advance width="430"/>
  <unicode hex="201D"/>
  <outline>
    <contour>
      <point x="621" y="279" type="line"/>
      <point x="621" y="539" type="line"/>
      <point x="751" y="539" type="line"/>
      <point x="751" y="399" type="line"/>
    </contour>
    <contour>
      <point x="411" y="279" type="line"/>
      <point x="411" y="539" type="line"/>
      <point x="541" y="539" type="line"/>
      <point x="541" y="399" type="line"/>
    </contour>
  </outline>
</glyph>
